<?xml version="1.0" encoding="UTF-8" standalone="no"?>
<!DOCTYPE svg PUBLIC "-//W3C//DTD SVG 1.1//EN"
 "http://www.w3.org/Graphics/SVG/1.1/DTD/svg11.dtd">
<!-- Generated by graphviz version 15.0.0 (20260523.1842)
 -->
<!-- Title: VZLA_DEDUP Pages: 1 -->
<svg width="787pt" height="976pt"
 viewBox="0.00 0.00 787.00 976.00" xmlns="http://www.w3.org/2000/svg" xmlns:xlink="http://www.w3.org/1999/xlink">
<g id="graph0" class="graph" transform="scale(1 1) rotate(0) translate(36 940)">
<title>VZLA_DEDUP</title>
<polygon fill="#f8f9fa" stroke="none" points="-36,36 -36,-940 750.95,-940 750.95,36 -36,36"/>
<g id="clust1" class="cluster">
<title>cluster_config</title>
<path fill="#daeeff" stroke="#0075ca" d="M20,-524C20,-524 150.3,-524 150.3,-524 156.3,-524 162.3,-530 162.3,-536 162.3,-536 162.3,-589 162.3,-589 162.3,-595 156.3,-601 150.3,-601 150.3,-601 20,-601 20,-601 14,-601 8,-595 8,-589 8,-589 8,-536 8,-536 8,-530 14,-524 20,-524"/>
<text xml:space="preserve" text-anchor="middle" x="85.15" y="-587.5" font-family="Helvetica Bold" font-size="10.00" fill="#0075ca">config</text>
</g>
<g id="clust2" class="cluster">
<title>cluster_models</title>
<path fill="#fafac0" stroke="#b8a800" d="M32.38,-388C32.38,-388 137.92,-388 137.92,-388 143.92,-388 149.92,-394 149.92,-400 149.92,-400 149.92,-453 149.92,-453 149.92,-459 143.92,-465 137.92,-465 137.92,-465 32.38,-465 32.38,-465 26.38,-465 20.38,-459 20.38,-453 20.38,-453 20.38,-400 20.38,-400 20.38,-394 26.38,-388 32.38,-388"/>
<text xml:space="preserve" text-anchor="middle" x="85.15" y="-451.5" font-family="Helvetica Bold" font-size="10.00" fill="#7a7000">models</text>
</g>
<g id="clust3" class="cluster">
<title>cluster_adapter</title>
<path fill="#fde8e0" stroke="#d93f0b" d="M227.05,-609C227.05,-609 518.65,-609 518.65,-609 524.65,-609 530.65,-615 530.65,-621 530.65,-621 530.65,-884 530.65,-884 530.65,-890 524.65,-896 518.65,-896 518.65,-896 227.05,-896 227.05,-896 221.05,-896 215.05,-890 215.05,-884 215.05,-884 215.05,-621 215.05,-621 215.05,-615 221.05,-609 227.05,-609"/>
<text xml:space="preserve" text-anchor="middle" x="372.85" y="-882.5" font-family="Helvetica Bold" font-size="10.00" fill="#d93f0b">adapter</text>
</g>
<g id="clust4" class="cluster">
<title>cluster_parser</title>
<path fill="#d4f5d7" stroke="#0e8a16" d="M413.85,-498C413.85,-498 511.15,-498 511.15,-498 517.15,-498 523.15,-504 523.15,-510 523.15,-510 523.15,-563 523.15,-563 523.15,-569 517.15,-575 511.15,-575 511.15,-575 413.85,-575 413.85,-575 407.85,-575 401.85,-569 401.85,-563 401.85,-563 401.85,-510 401.85,-510 401.85,-504 407.85,-498 413.85,-498"/>
<text xml:space="preserve" text-anchor="middle" x="462.5" y="-561.5" font-family="Helvetica Bold" font-size="10.00" fill="#0e8a16">parser</text>
</g>
<g id="clust5" class="cluster">
<title>cluster_pii</title>
<path fill="#fde0e0" stroke="#b60205" d="M243.17,-233C243.17,-233 313.47,-233 313.47,-233 319.47,-233 325.47,-239 325.47,-245 325.47,-245 325.47,-298 325.47,-298 325.47,-304 319.47,-310 313.47,-310 313.47,-310 243.17,-310 243.17,-310 237.17,-310 231.17,-304 231.17,-298 231.17,-298 231.17,-245 231.17,-245 231.17,-239 237.17,-233 243.17,-233"/>
<text xml:space="preserve" text-anchor="middle" x="278.32" y="-296.5" font-family="Helvetica Bold" font-size="10.00" fill="#b60205">pii</text>
</g>
<g id="clust6" class="cluster">
<title>cluster_norm</title>
<path fill="#ede0ff" stroke="#5319e7" d="M223.3,-8C223.3,-8 500.65,-8 500.65,-8 506.65,-8 512.65,-14 512.65,-20 512.65,-20 512.65,-213 512.65,-213 512.65,-219 506.65,-225 500.65,-225 500.65,-225 223.3,-225 223.3,-225 217.3,-225 211.3,-219 211.3,-213 211.3,-213 211.3,-20 211.3,-20 211.3,-14 217.3,-8 223.3,-8"/>
<text xml:space="preserve" text-anchor="middle" x="361.97" y="-211.5" font-family="Helvetica Bold" font-size="10.00" fill="#5319e7">normalización</text>
</g>
<g id="clust7" class="cluster">
<title>cluster_dedup</title>
<path fill="#fdf0ed" stroke="#c7a59e" d="M226.3,-318C226.3,-318 694.95,-318 694.95,-318 700.95,-318 706.95,-324 706.95,-330 706.95,-330 706.95,-453 706.95,-453 706.95,-459 700.95,-465 694.95,-465 694.95,-465 226.3,-465 226.3,-465 220.3,-465 214.3,-459 214.3,-453 214.3,-453 214.3,-330 214.3,-330 214.3,-324 220.3,-318 226.3,-318"/>
<text xml:space="preserve" text-anchor="middle" x="460.62" y="-451.5" font-family="Helvetica Bold" font-size="10.00" fill="#8a5a50">deduplicación</text>
</g>
<g id="clust8" class="cluster">
<title>cluster_val</title>
<path fill="#eaf4fb" stroke="#6dacc7" d="M225.92,-524C225.92,-524 330.72,-524 330.72,-524 336.72,-524 342.72,-530 342.72,-536 342.72,-536 342.72,-589 342.72,-589 342.72,-595 336.72,-601 330.72,-601 330.72,-601 225.92,-601 225.92,-601 219.92,-601 213.92,-595 213.92,-589 213.92,-589 213.92,-536 213.92,-536 213.92,-530 219.92,-524 225.92,-524"/>
<text xml:space="preserve" text-anchor="middle" x="278.32" y="-587.5" font-family="Helvetica Bold" font-size="10.00" fill="#2a6a8a">validación</text>
</g>
<!-- n4 -->
<g id="node1" class="node">
<title>n4</title>
<path fill="#0075ca" stroke="black" d="M142.3,-573.64C142.3,-573.64 28,-573.64 28,-573.64 22,-573.64 16,-567.64 16,-561.64 16,-561.64 16,-544.36 16,-544.36 16,-538.36 22,-532.36 28,-532.36 28,-532.36 142.3,-532.36 142.3,-532.36 148.3,-532.36 154.3,-538.36 154.3,-544.36 154.3,-544.36 154.3,-561.64 154.3,-561.64 154.3,-567.64 148.3,-573.64 142.3,-573.64"/>
<text xml:space="preserve" text-anchor="middle" x="85.15" y="-554.55" font-family="Helvetica,sans-Serif" font-size="11.00" fill="white">#4</text>
<text xml:space="preserve" text-anchor="middle" x="85.15" y="-542.55" font-family="Helvetica,sans-Serif" font-size="11.00" fill="white">Esquema YAML/JSON</text>
</g>
<!-- n10 -->
<g id="node3" class="node">
<title>n10</title>
<path fill="#d93f0b" stroke="black" d="M321.6,-693.64C321.6,-693.64 235.05,-693.64 235.05,-693.64 229.05,-693.64 223.05,-687.64 223.05,-681.64 223.05,-681.64 223.05,-664.36 223.05,-664.36 223.05,-658.36 229.05,-652.36 235.05,-652.36 235.05,-652.36 321.6,-652.36 321.6,-652.36 327.6,-652.36 333.6,-658.36 333.6,-664.36 333.6,-664.36 333.6,-681.64 333.6,-681.64 333.6,-687.64 327.6,-693.64 321.6,-693.64"/>
<text xml:space="preserve" text-anchor="middle" x="278.32" y="-674.55" font-family="Helvetica,sans-Serif" font-size="11.00" fill="white">#10</text>
<text xml:space="preserve" text-anchor="middle" x="278.32" y="-662.55" font-family="Helvetica,sans-Serif" font-size="11.00" fill="white">Interfaz Adapters</text>
</g>
<!-- n4&#45;&gt;n10 -->
<g id="edge1" class="edge">
<title>n4&#45;&gt;n10</title>
<path fill="none" stroke="#555555" stroke-width="1.2" d="M84.95,-573.9C84.95,-608.28 84.95,-673 84.95,-673 84.95,-673 212.84,-673 212.84,-673"/>
<polygon fill="#555555" stroke="#555555" stroke-width="1.2" points="212.84,-675.8 220.84,-673 212.84,-670.2 212.84,-675.8"/>
</g>
<!-- n17 -->
<g id="node14" class="node">
<title>n17</title>
<path fill="#f9d0c4" stroke="black" d="M322.35,-437.64C322.35,-437.64 234.3,-437.64 234.3,-437.64 228.3,-437.64 222.3,-431.64 222.3,-425.64 222.3,-425.64 222.3,-408.36 222.3,-408.36 222.3,-402.36 228.3,-396.36 234.3,-396.36 234.3,-396.36 322.35,-396.36 322.35,-396.36 328.35,-396.36 334.35,-402.36 334.35,-408.36 334.35,-408.36 334.35,-425.64 334.35,-425.64 334.35,-431.64 328.35,-437.64 322.35,-437.64"/>
<text xml:space="preserve" text-anchor="middle" x="278.32" y="-418.55" font-family="Helvetica,sans-Serif" font-size="11.00">#17</text>
<text xml:space="preserve" text-anchor="middle" x="278.32" y="-406.55" font-family="Helvetica,sans-Serif" font-size="11.00">Dedup fingerprint</text>
</g>
<!-- n4&#45;&gt;n17 -->
<g id="edge2" class="edge">
<title>n4&#45;&gt;n17</title>
<path fill="none" stroke="#555555" stroke-width="1.2" d="M147.95,-531.96C147.95,-496.19 147.95,-427.32 147.95,-427.32 147.95,-427.32 212.08,-427.32 212.08,-427.32"/>
<polygon fill="#555555" stroke="#555555" stroke-width="1.2" points="212.08,-430.12 220.08,-427.32 212.08,-424.52 212.08,-430.12"/>
</g>
<!-- n21 -->
<g id="node18" class="node">
<title>n21</title>
<path fill="#c5def5" stroke="black" d="M322.72,-573.64C322.72,-573.64 233.92,-573.64 233.92,-573.64 227.92,-573.64 221.92,-567.64 221.92,-561.64 221.92,-561.64 221.92,-544.36 221.92,-544.36 221.92,-538.36 227.92,-532.36 233.92,-532.36 233.92,-532.36 322.72,-532.36 322.72,-532.36 328.72,-532.36 334.72,-538.36 334.72,-544.36 334.72,-544.36 334.72,-561.64 334.72,-561.64 334.72,-567.64 328.72,-573.64 322.72,-573.64"/>
<text xml:space="preserve" text-anchor="middle" x="278.32" y="-554.55" font-family="Helvetica,sans-Serif" font-size="11.00">#21</text>
<text xml:space="preserve" text-anchor="middle" x="278.32" y="-542.55" font-family="Helvetica,sans-Serif" font-size="11.00">confidence_score</text>
</g>
<!-- n4&#45;&gt;n21 -->
<g id="edge3" class="edge">
<title>n4&#45;&gt;n21</title>
<path fill="none" stroke="#555555" stroke-width="1.2" d="M154.62,-559.88C154.62,-559.88 211.71,-559.88 211.71,-559.88"/>
<polygon fill="#555555" stroke="#555555" stroke-width="1.2" points="211.71,-562.68 219.71,-559.88 211.71,-557.08 211.71,-562.68"/>
</g>
<!-- n5 -->
<g id="node2" class="node">
<title>n5</title>
<path fill="#e4e669" stroke="black" d="M129.92,-437.64C129.92,-437.64 40.37,-437.64 40.37,-437.64 34.37,-437.64 28.37,-431.64 28.37,-425.64 28.37,-425.64 28.37,-408.36 28.37,-408.36 28.37,-402.36 34.37,-396.36 40.37,-396.36 40.37,-396.36 129.92,-396.36 129.92,-396.36 135.92,-396.36 141.92,-402.36 141.92,-408.36 141.92,-408.36 141.92,-425.64 141.92,-425.64 141.92,-431.64 135.92,-437.64 129.92,-437.64"/>
<text xml:space="preserve" text-anchor="middle" x="85.15" y="-418.55" font-family="Helvetica,sans-Serif" font-size="11.00">#5</text>
<text xml:space="preserve" text-anchor="middle" x="85.15" y="-406.55" font-family="Helvetica,sans-Serif" font-size="11.00">Modelos Pydantic</text>
</g>
<!-- n11 -->
<g id="node8" class="node">
<title>n11</title>
<path fill="#0e8a16" stroke="black" d="M503.15,-547.64C503.15,-547.64 421.85,-547.64 421.85,-547.64 415.85,-547.64 409.85,-541.64 409.85,-535.64 409.85,-535.64 409.85,-518.36 409.85,-518.36 409.85,-512.36 415.85,-506.36 421.85,-506.36 421.85,-506.36 503.15,-506.36 503.15,-506.36 509.15,-506.36 515.15,-512.36 515.15,-518.36 515.15,-518.36 515.15,-535.64 515.15,-535.64 515.15,-541.64 509.15,-547.64 503.15,-547.64"/>
<text xml:space="preserve" text-anchor="middle" x="462.5" y="-528.55" font-family="Helvetica,sans-Serif" font-size="11.00" fill="white">#11</text>
<text xml:space="preserve" text-anchor="middle" x="462.5" y="-516.55" font-family="Helvetica,sans-Serif" font-size="11.00" fill="white">Interfaz Parsers</text>
</g>
<!-- n5&#45;&gt;n11 -->
<g id="edge4" class="edge">
<title>n5&#45;&gt;n11</title>
<path fill="none" stroke="#555555" stroke-width="1.2" d="M84.95,-437.71C84.95,-467.62 84.95,-519.36 84.95,-519.36 84.95,-519.36 399.79,-519.36 399.79,-519.36"/>
<polygon fill="#555555" stroke="#555555" stroke-width="1.2" points="399.79,-522.16 407.79,-519.36 399.79,-516.56 399.79,-522.16"/>
</g>
<!-- n12 -->
<g id="node9" class="node">
<title>n12</title>
<path fill="#b60205" stroke="black" d="M305.47,-282.64C305.47,-282.64 251.17,-282.64 251.17,-282.64 245.17,-282.64 239.17,-276.64 239.17,-270.64 239.17,-270.64 239.17,-253.36 239.17,-253.36 239.17,-247.36 245.17,-241.36 251.17,-241.36 251.17,-241.36 305.47,-241.36 305.47,-241.36 311.47,-241.36 317.47,-247.36 317.47,-253.36 317.47,-253.36 317.47,-270.64 317.47,-270.64 317.47,-276.64 311.47,-282.64 305.47,-282.64"/>
<text xml:space="preserve" text-anchor="middle" x="278.32" y="-263.55" font-family="Helvetica,sans-Serif" font-size="11.00" fill="white">#12</text>
<text xml:space="preserve" text-anchor="middle" x="278.32" y="-251.55" font-family="Helvetica,sans-Serif" font-size="11.00" fill="white">PII HMAC</text>
</g>
<!-- n5&#45;&gt;n12 -->
<g id="edge5" class="edge">
<title>n5&#45;&gt;n12</title>
<path fill="none" stroke="#555555" stroke-width="1.2" d="M65.95,-396.1C65.95,-353.79 65.95,-262 65.95,-262 65.95,-262 229.06,-262 229.06,-262"/>
<polygon fill="#555555" stroke="#555555" stroke-width="1.2" points="229.06,-264.8 237.06,-262 229.06,-259.2 229.06,-264.8"/>
</g>
<!-- n5&#45;&gt;n17 -->
<g id="edge6" class="edge">
<title>n5&#45;&gt;n17</title>
<path fill="none" stroke="#555555" stroke-width="1.2" d="M142.32,-406.68C142.32,-406.68 212.15,-406.68 212.15,-406.68"/>
<polygon fill="#555555" stroke="#555555" stroke-width="1.2" points="212.15,-409.48 220.15,-406.68 212.15,-403.88 212.15,-409.48"/>
</g>
<!-- n18 -->
<g id="node15" class="node">
<title>n18</title>
<path fill="#f9d0c4" stroke="black" d="M321.22,-367.64C321.22,-367.64 235.42,-367.64 235.42,-367.64 229.42,-367.64 223.42,-361.64 223.42,-355.64 223.42,-355.64 223.42,-338.36 223.42,-338.36 223.42,-332.36 229.42,-326.36 235.42,-326.36 235.42,-326.36 321.22,-326.36 321.22,-326.36 327.22,-326.36 333.22,-332.36 333.22,-338.36 333.22,-338.36 333.22,-355.64 333.22,-355.64 333.22,-361.64 327.22,-367.64 321.22,-367.64"/>
<text xml:space="preserve" text-anchor="middle" x="278.32" y="-348.55" font-family="Helvetica,sans-Serif" font-size="11.00">#18</text>
<text xml:space="preserve" text-anchor="middle" x="278.32" y="-336.55" font-family="Helvetica,sans-Serif" font-size="11.00">Blocking fonético</text>
</g>
<!-- n5&#45;&gt;n18 -->
<g id="edge7" class="edge">
<title>n5&#45;&gt;n18</title>
<path fill="none" stroke="#555555" stroke-width="1.2" d="M103.95,-396C103.95,-375.38 103.95,-347 103.95,-347 103.95,-347 213.34,-347 213.34,-347"/>
<polygon fill="#555555" stroke="#555555" stroke-width="1.2" points="213.34,-349.8 221.34,-347 213.34,-344.2 213.34,-349.8"/>
</g>
<!-- n5&#45;&gt;n21 -->
<g id="edge8" class="edge">
<title>n5&#45;&gt;n21</title>
<path fill="none" stroke="#555555" stroke-width="1.2" d="M142.3,-417C165.5,-417 186.95,-417 186.95,-417 186.95,-417 186.95,-546.12 186.95,-546.12 186.95,-546.12 211.68,-546.12 211.68,-546.12"/>
<polygon fill="#555555" stroke="#555555" stroke-width="1.2" points="211.68,-548.92 219.68,-546.12 211.68,-543.32 211.68,-548.92"/>
</g>
<!-- n6 -->
<g id="node4" class="node">
<title>n6</title>
<path fill="#d93f0b" stroke="black" d="M500.52,-658.64C500.52,-658.64 424.47,-658.64 424.47,-658.64 418.47,-658.64 412.47,-652.64 412.47,-646.64 412.47,-646.64 412.47,-629.36 412.47,-629.36 412.47,-623.36 418.47,-617.36 424.47,-617.36 424.47,-617.36 500.52,-617.36 500.52,-617.36 506.52,-617.36 512.52,-623.36 512.52,-629.36 512.52,-629.36 512.52,-646.64 512.52,-646.64 512.52,-652.64 506.52,-658.64 500.52,-658.64"/>
<text xml:space="preserve" text-anchor="middle" x="462.5" y="-639.55" font-family="Helvetica,sans-Serif" font-size="11.00" fill="white">#6</text>
<text xml:space="preserve" text-anchor="middle" x="462.5" y="-627.55" font-family="Helvetica,sans-Serif" font-size="11.00" fill="white">Adapter HTML</text>
</g>
<!-- n10&#45;&gt;n6 -->
<g id="edge9" class="edge">
<title>n10&#45;&gt;n6</title>
<path fill="none" stroke="#555555" stroke-width="1.2" d="M333.97,-677.79C388.33,-677.79 462.95,-677.79 462.95,-677.79 462.95,-677.79 462.95,-668.64 462.95,-668.64"/>
<polygon fill="#555555" stroke="#555555" stroke-width="1.2" points="465.75,-668.64 462.95,-660.64 460.15,-668.64 465.75,-668.64"/>
</g>
<!-- n7 -->
<g id="node5" class="node">
<title>n7</title>
<path fill="#d93f0b" stroke="black" d="M510.65,-728.64C510.65,-728.64 414.35,-728.64 414.35,-728.64 408.35,-728.64 402.35,-722.64 402.35,-716.64 402.35,-716.64 402.35,-699.36 402.35,-699.36 402.35,-693.36 408.35,-687.36 414.35,-687.36 414.35,-687.36 510.65,-687.36 510.65,-687.36 516.65,-687.36 522.65,-693.36 522.65,-699.36 522.65,-699.36 522.65,-716.64 522.65,-716.64 522.65,-722.64 516.65,-728.64 510.65,-728.64"/>
<text xml:space="preserve" text-anchor="middle" x="462.5" y="-709.55" font-family="Helvetica,sans-Serif" font-size="11.00" fill="white">#7</text>
<text xml:space="preserve" text-anchor="middle" x="462.5" y="-697.55" font-family="Helvetica,sans-Serif" font-size="11.00" fill="white">Adapter Playwright</text>
</g>
<!-- n10&#45;&gt;n7 -->
<g id="edge10" class="edge">
<title>n10&#45;&gt;n7</title>
<path fill="none" stroke="#555555" stroke-width="1.2" d="M305.95,-693.86C305.95,-702.76 305.95,-711.14 305.95,-711.14 305.95,-711.14 392.16,-711.14 392.16,-711.14"/>
<polygon fill="#555555" stroke="#555555" stroke-width="1.2" points="392.16,-713.94 400.16,-711.14 392.16,-708.34 392.16,-713.94"/>
</g>
<!-- n8 -->
<g id="node6" class="node">
<title>n8</title>
<path fill="#d93f0b" stroke="black" d="M510.65,-798.64C510.65,-798.64 414.35,-798.64 414.35,-798.64 408.35,-798.64 402.35,-792.64 402.35,-786.64 402.35,-786.64 402.35,-769.36 402.35,-769.36 402.35,-763.36 408.35,-757.36 414.35,-757.36 414.35,-757.36 510.65,-757.36 510.65,-757.36 516.65,-757.36 522.65,-763.36 522.65,-769.36 522.65,-769.36 522.65,-786.64 522.65,-786.64 522.65,-792.64 516.65,-798.64 510.65,-798.64"/>
<text xml:space="preserve" text-anchor="middle" x="462.5" y="-779.55" font-family="Helvetica,sans-Serif" font-size="11.00" fill="white">#8</text>
<text xml:space="preserve" text-anchor="middle" x="462.5" y="-767.55" font-family="Helvetica,sans-Serif" font-size="11.00" fill="white">Adapter API REST</text>
</g>
<!-- n10&#45;&gt;n8 -->
<g id="edge11" class="edge">
<title>n10&#45;&gt;n8</title>
<path fill="none" stroke="#555555" stroke-width="1.2" d="M277.95,-694C277.95,-724.64 277.95,-778 277.95,-778 277.95,-778 392.26,-778 392.26,-778"/>
<polygon fill="#555555" stroke="#555555" stroke-width="1.2" points="392.26,-780.8 400.26,-778 392.26,-775.2 392.26,-780.8"/>
</g>
<!-- n9 -->
<g id="node7" class="node">
<title>n9</title>
<path fill="#d93f0b" stroke="black" d="M496.77,-868.64C496.77,-868.64 428.22,-868.64 428.22,-868.64 422.22,-868.64 416.22,-862.64 416.22,-856.64 416.22,-856.64 416.22,-839.36 416.22,-839.36 416.22,-833.36 422.22,-827.36 428.22,-827.36 428.22,-827.36 496.77,-827.36 496.77,-827.36 502.77,-827.36 508.77,-833.36 508.77,-839.36 508.77,-839.36 508.77,-856.64 508.77,-856.64 508.77,-862.64 502.77,-868.64 496.77,-868.64"/>
<text xml:space="preserve" text-anchor="middle" x="462.5" y="-849.55" font-family="Helvetica,sans-Serif" font-size="11.00" fill="white">#9</text>
<text xml:space="preserve" text-anchor="middle" x="462.5" y="-837.55" font-family="Helvetica,sans-Serif" font-size="11.00" fill="white">Adapter PDF</text>
</g>
<!-- n10&#45;&gt;n9 -->
<g id="edge12" class="edge">
<title>n10&#45;&gt;n9</title>
<path fill="none" stroke="#555555" stroke-width="1.2" d="M250.95,-694.11C250.95,-740.65 250.95,-848 250.95,-848 250.95,-848 406,-848 406,-848"/>
<polygon fill="#555555" stroke="#555555" stroke-width="1.2" points="406,-850.8 414,-848 406,-845.2 406,-850.8"/>
</g>
<!-- n10&#45;&gt;n11 -->
<g id="edge13" class="edge">
<title>n10&#45;&gt;n11</title>
<path fill="none" stroke="#555555" stroke-width="1.2" d="M334,-668.21C353.19,-668.21 369.95,-668.21 369.95,-668.21 369.95,-668.21 369.95,-540 369.95,-540 369.95,-540 399.65,-540 399.65,-540"/>
<polygon fill="#555555" stroke="#555555" stroke-width="1.2" points="399.65,-542.8 407.65,-540 399.65,-537.2 399.65,-542.8"/>
</g>
<!-- n19 -->
<g id="node16" class="node">
<title>n19</title>
<path fill="#f9d0c4" stroke="black" d="M505.4,-367.64C505.4,-367.64 419.6,-367.64 419.6,-367.64 413.6,-367.64 407.6,-361.64 407.6,-355.64 407.6,-355.64 407.6,-338.36 407.6,-338.36 407.6,-332.36 413.6,-326.36 419.6,-326.36 419.6,-326.36 505.4,-326.36 505.4,-326.36 511.4,-326.36 517.4,-332.36 517.4,-338.36 517.4,-338.36 517.4,-355.64 517.4,-355.64 517.4,-361.64 511.4,-367.64 505.4,-367.64"/>
<text xml:space="preserve" text-anchor="middle" x="462.5" y="-348.55" font-family="Helvetica,sans-Serif" font-size="11.00">#19</text>
<text xml:space="preserve" text-anchor="middle" x="462.5" y="-336.55" font-family="Helvetica,sans-Serif" font-size="11.00">Similarity scoring</text>
</g>
<!-- n12&#45;&gt;n19 -->
<g id="edge17" class="edge">
<title>n12&#45;&gt;n19</title>
<path fill="none" stroke="#555555" stroke-width="1.2" d="M317.76,-262C356.85,-262 410.95,-262 410.95,-262 410.95,-262 410.95,-316.17 410.95,-316.17"/>
<polygon fill="#555555" stroke="#555555" stroke-width="1.2" points="408.15,-316.17 410.95,-324.17 413.75,-316.17 408.15,-316.17"/>
</g>
<!-- n13 -->
<g id="node10" class="node">
<title>n13</title>
<path fill="#5319e7" stroke="black" d="M308.85,-57.64C308.85,-57.64 247.8,-57.64 247.8,-57.64 241.8,-57.64 235.8,-51.64 235.8,-45.64 235.8,-45.64 235.8,-28.36 235.8,-28.36 235.8,-22.36 241.8,-16.36 247.8,-16.36 247.8,-16.36 308.85,-16.36 308.85,-16.36 314.85,-16.36 320.85,-22.36 320.85,-28.36 320.85,-28.36 320.85,-45.64 320.85,-45.64 320.85,-51.64 314.85,-57.64 308.85,-57.64"/>
<text xml:space="preserve" text-anchor="middle" x="278.32" y="-38.55" font-family="Helvetica,sans-Serif" font-size="11.00" fill="white">#13</text>
<text xml:space="preserve" text-anchor="middle" x="278.32" y="-26.55" font-family="Helvetica,sans-Serif" font-size="11.00" fill="white">Norm. texto</text>
</g>
<!-- n16 -->
<g id="node13" class="node">
<title>n16</title>
<path fill="#5319e7" stroke="black" d="M492.65,-57.64C492.65,-57.64 432.35,-57.64 432.35,-57.64 426.35,-57.64 420.35,-51.64 420.35,-45.64 420.35,-45.64 420.35,-28.36 420.35,-28.36 420.35,-22.36 426.35,-16.36 432.35,-16.36 432.35,-16.36 492.65,-16.36 492.65,-16.36 498.65,-16.36 504.65,-22.36 504.65,-28.36 504.65,-28.36 504.65,-45.64 504.65,-45.64 504.65,-51.64 498.65,-57.64 492.65,-57.64"/>
<text xml:space="preserve" text-anchor="middle" x="462.5" y="-38.55" font-family="Helvetica,sans-Serif" font-size="11.00" fill="white">#16</text>
<text xml:space="preserve" text-anchor="middle" x="462.5" y="-26.55" font-family="Helvetica,sans-Serif" font-size="11.00" fill="white">NLP spaCy</text>
</g>
<!-- n13&#45;&gt;n16 -->
<g id="edge14" class="edge">
<title>n13&#45;&gt;n16</title>
<path fill="none" stroke="#555555" stroke-width="1.2" d="M321.04,-30.12C321.04,-30.12 410.2,-30.12 410.2,-30.12"/>
<polygon fill="#555555" stroke="#555555" stroke-width="1.2" points="410.2,-32.92 418.2,-30.12 410.2,-27.32 410.2,-32.92"/>
</g>
<!-- n13&#45;&gt;n19 -->
<g id="edge15" class="edge">
<title>n13&#45;&gt;n19</title>
<path fill="none" stroke="#555555" stroke-width="1.2" d="M321.05,-43.88C361.78,-43.88 416.95,-43.88 416.95,-43.88 416.95,-43.88 416.95,-316.35 416.95,-316.35"/>
<polygon fill="#555555" stroke="#555555" stroke-width="1.2" points="414.15,-316.35 416.95,-324.35 419.75,-316.35 414.15,-316.35"/>
</g>
<!-- n14 -->
<g id="node11" class="node">
<title>n14</title>
<path fill="#5319e7" stroke="black" d="M312.97,-127.64C312.97,-127.64 243.67,-127.64 243.67,-127.64 237.67,-127.64 231.67,-121.64 231.67,-115.64 231.67,-115.64 231.67,-98.36 231.67,-98.36 231.67,-92.36 237.67,-86.36 243.67,-86.36 243.67,-86.36 312.97,-86.36 312.97,-86.36 318.97,-86.36 324.97,-92.36 324.97,-98.36 324.97,-98.36 324.97,-115.64 324.97,-115.64 324.97,-121.64 318.97,-127.64 312.97,-127.64"/>
<text xml:space="preserve" text-anchor="middle" x="278.32" y="-108.55" font-family="Helvetica,sans-Serif" font-size="11.00" fill="white">#14</text>
<text xml:space="preserve" text-anchor="middle" x="278.32" y="-96.55" font-family="Helvetica,sans-Serif" font-size="11.00" fill="white">Norm. fechas</text>
</g>
<!-- n15 -->
<g id="node12" class="node">
<title>n15</title>
<path fill="#5319e7" stroke="black" d="M325.35,-197.64C325.35,-197.64 231.3,-197.64 231.3,-197.64 225.3,-197.64 219.3,-191.64 219.3,-185.64 219.3,-185.64 219.3,-168.36 219.3,-168.36 219.3,-162.36 225.3,-156.36 231.3,-156.36 231.3,-156.36 325.35,-156.36 325.35,-156.36 331.35,-156.36 337.35,-162.36 337.35,-168.36 337.35,-168.36 337.35,-185.64 337.35,-185.64 337.35,-191.64 331.35,-197.64 325.35,-197.64"/>
<text xml:space="preserve" text-anchor="middle" x="278.32" y="-178.55" font-family="Helvetica,sans-Serif" font-size="11.00" fill="white">#15</text>
<text xml:space="preserve" text-anchor="middle" x="278.32" y="-166.55" font-family="Helvetica,sans-Serif" font-size="11.00" fill="white">Norm. ubicaciones</text>
</g>
<!-- n15&#45;&gt;n19 -->
<g id="edge16" class="edge">
<title>n15&#45;&gt;n19</title>
<path fill="none" stroke="#555555" stroke-width="1.2" d="M337.81,-177C374.25,-177 413.95,-177 413.95,-177 413.95,-177 413.95,-316.34 413.95,-316.34"/>
<polygon fill="#555555" stroke="#555555" stroke-width="1.2" points="411.15,-316.34 413.95,-324.34 416.75,-316.34 411.15,-316.34"/>
</g>
<!-- n18&#45;&gt;n19 -->
<g id="edge18" class="edge">
<title>n18&#45;&gt;n19</title>
<path fill="none" stroke="#555555" stroke-width="1.2" d="M333.58,-347C333.58,-347 397.46,-347 397.46,-347"/>
<polygon fill="#555555" stroke="#555555" stroke-width="1.2" points="397.46,-349.8 405.46,-347 397.46,-344.2 397.46,-349.8"/>
</g>
<!-- n20 -->
<g id="node17" class="node">
<title>n20</title>
<path fill="#f9d0c4" stroke="black" d="M686.95,-392.64C686.95,-392.64 599.65,-392.64 599.65,-392.64 593.65,-392.64 587.65,-386.64 587.65,-380.64 587.65,-380.64 587.65,-363.36 587.65,-363.36 587.65,-357.36 593.65,-351.36 599.65,-351.36 599.65,-351.36 686.95,-351.36 686.95,-351.36 692.95,-351.36 698.95,-357.36 698.95,-363.36 698.95,-363.36 698.95,-380.64 698.95,-380.64 698.95,-386.64 692.95,-392.64 686.95,-392.64"/>
<text xml:space="preserve" text-anchor="middle" x="643.3" y="-373.55" font-family="Helvetica,sans-Serif" font-size="11.00">#20</text>
<text xml:space="preserve" text-anchor="middle" x="643.3" y="-361.55" font-family="Helvetica,sans-Serif" font-size="11.00">Clustering duplic.</text>
</g>
<!-- n18&#45;&gt;n20 -->
<g id="edge19" class="edge">
<title>n18&#45;&gt;n20</title>
<path fill="none" stroke="#555555" stroke-width="1.2" d="M277.95,-367.8C277.95,-374.46 277.95,-380.14 277.95,-380.14 277.95,-380.14 577.6,-380.14 577.6,-380.14"/>
<polygon fill="#555555" stroke="#555555" stroke-width="1.2" points="577.6,-382.94 585.6,-380.14 577.6,-377.34 577.6,-382.94"/>
</g>
<!-- n19&#45;&gt;n20 -->
<g id="edge20" class="edge">
<title>n19&#45;&gt;n20</title>
<path fill="none" stroke="#555555" stroke-width="1.2" d="M517.73,-359.5C517.73,-359.5 577.35,-359.5 577.35,-359.5"/>
<polygon fill="#555555" stroke="#555555" stroke-width="1.2" points="577.35,-362.3 585.35,-359.5 577.35,-356.7 577.35,-362.3"/>
</g>
</g>
</svg>
